<svg width="33" height="35" viewBox="0 0 33 35" fill="none" xmlns="http://www.w3.org/2000/svg">
<path d="M32.9423 12.382C32.9423 12.3976 32.9311 12.4154 32.9177 12.4578H31.1081V12.1633C31.1081 10.8401 31.1015 9.51921 31.1081 8.19606C31.1081 7.99748 31.0568 7.89707 30.8672 7.81674C28.4462 6.81044 26.0297 5.79743 23.611 4.7822C21.3017 3.81159 18.9945 2.83652 16.6829 1.8726C16.5669 1.82352 16.3973 1.81905 16.2835 1.86814C13.3739 3.08196 10.471 4.3047 7.56587 5.52745C5.73622 6.29724 3.9088 7.0648 2.07468 7.82567C1.9051 7.89484 1.84932 7.97963 1.85155 8.16036C1.85155 8.4125 1.85155 8.66463 1.85378 8.91677C1.85601 9.99671 1.85378 11.0767 1.85378 12.1544V12.469H0.0152048V12.1566C0.0152048 10.5367 0.0218986 8.919 0.0107422 7.29909C0.0107422 7.07373 0.0821433 6.96886 0.282959 6.88407C2.82662 5.80413 5.36805 4.71526 7.91172 3.62863C10.7164 2.42819 13.5212 1.22776 16.3304 0.0317958C16.4285 -0.0105986 16.5736 -0.0105986 16.6717 0.0317958C18.6531 0.877452 20.63 1.7365 22.6092 2.58438C24.7624 3.5059 26.92 4.4185 29.0754 5.33779C30.3049 5.86214 31.5343 6.39319 32.7571 6.93093C32.8396 6.96663 32.94 7.08935 32.94 7.17414C32.949 8.91007 32.9445 10.646 32.9423 12.382Z" fill="url(#paint0_linear_567_357)"/>
<path d="M5.00586 12.8984L5.0371 24.6104L8.297 26.3642L8.26353 16.5377L13.786 22.5644V19.8846V17.7693L9.22076 12.8984H5.00586Z" fill="url(#paint1_linear_567_357)"/>
<path d="M27.8014 12.8982L27.7679 24.6102L24.5103 26.364L24.5437 16.5374L19.0213 22.5641V19.8843V17.7691L23.5843 12.8982H27.8014Z" fill="url(#paint2_linear_567_357)"/>
<path d="M32.9449 13.1738V24.955L16.4713 34.1747L0 24.955L0.0178503 13.1582H1.85643L1.98807 24.0179L16.4713 31.756L31.1086 23.855V13.1738H32.9449Z" fill="url(#paint3_linear_567_357)"/>
<path d="M29.1016 7.87109L28.1667 11.5349H18.2754V26.2814L16.4725 28.0687L14.6964 26.2948V19.7906V11.5349H4.78285L3.86133 7.87109H29.1016Z" fill="url(#paint4_linear_567_357)"/>
<defs>
<linearGradient id="paint0_linear_567_357" x1="16.8904" y1="-3.56503" x2="15.4735" y2="42.2678" gradientUnits="userSpaceOnUse">
<stop offset="0.01" stop-color="#FFEDBC"/>
<stop offset="1" stop-color="#D4A017"/>
</linearGradient>
<linearGradient id="paint1_linear_567_357" x1="10.0597" y1="-3.77595" x2="8.64285" y2="42.0569" gradientUnits="userSpaceOnUse">
<stop offset="0.01" stop-color="#FFEDBC"/>
<stop offset="1" stop-color="#D4A017"/>
</linearGradient>
<linearGradient id="paint2_linear_567_357" x1="24.1533" y1="-3.34109" x2="22.7364" y2="42.4917" gradientUnits="userSpaceOnUse">
<stop offset="0.01" stop-color="#FFEDBC"/>
<stop offset="1" stop-color="#D4A017"/>
</linearGradient>
<linearGradient id="paint3_linear_567_357" x1="17.1809" y1="-3.55635" x2="15.764" y2="42.2765" gradientUnits="userSpaceOnUse">
<stop offset="0.01" stop-color="#FFEDBC"/>
<stop offset="1" stop-color="#D4A017"/>
</linearGradient>
<linearGradient id="paint4_linear_567_357" x1="16.8362" y1="-3.5687" x2="15.4171" y2="42.2663" gradientUnits="userSpaceOnUse">
<stop offset="0.01" stop-color="#FFEDBC"/>
<stop offset="1" stop-color="#D4A017"/>
</linearGradient>
</defs>
</svg>
