<svg width="42" height="36" viewBox="0 0 42 36" fill="none" xmlns="http://www.w3.org/2000/svg">
<g opacity="0.6">
<path d="M31.6846 11.9082C31.6846 12.8457 31.4746 13.7344 31.0547 14.5742C31.7188 15.0723 32.251 15.7021 32.6514 16.4639C33.0615 17.2158 33.2666 18.0361 33.2666 18.9248C33.2666 19.9307 33.0176 20.8486 32.5195 21.6787C32.0312 22.499 31.377 23.1533 30.5566 23.6416C29.7363 24.1299 28.8232 24.374 27.8174 24.374H23.7598V31.2881H17.4316V24.374H14.4287C13.4326 24.374 12.5195 24.1299 11.6895 23.6416C10.8691 23.1533 10.21 22.499 9.71191 21.6787C9.22363 20.8486 8.97949 19.9307 8.97949 18.9248C8.97949 18.0361 9.18457 17.2158 9.59473 16.4639C10.0049 15.7021 10.542 15.0723 11.2061 14.5742C10.7764 13.7344 10.5615 12.8457 10.5615 11.9082C10.5615 10.8828 10.7959 9.94531 11.2646 9.0957C11.7334 8.23633 12.3633 7.52832 13.1543 6.97168C13.9551 6.41504 14.8535 6.07812 15.8496 5.96094V5.91699C15.8496 4.9502 16.084 4.06641 16.5527 3.26562C17.0312 2.46484 17.6709 1.83008 18.4717 1.36133C19.2725 0.882812 20.1562 0.643555 21.123 0.643555C22.0996 0.643555 22.9834 0.882812 23.7744 1.36133C24.5752 1.83008 25.2148 2.46484 25.6934 3.26562C26.1719 4.06641 26.4111 4.9502 26.4111 5.91699V5.96094C27.3975 6.07812 28.2861 6.41504 29.0771 6.97168C29.8779 7.52832 30.5127 8.23633 30.9814 9.0957C31.4502 9.94531 31.6846 10.8828 31.6846 11.9082ZM19.541 24.374V29.1641H21.6504V24.374H19.541Z" fill="#00FF00"/>
</g>
</svg>
