<svg width="42" height="38" viewBox="0 0 42 38" fill="none" xmlns="http://www.w3.org/2000/svg">
<g opacity="0.6">
<path d="M19.7607 30.6152C18.54 30.5664 17.4316 30.2783 16.4355 29.751C15.4395 29.2236 14.5947 28.5254 13.9014 27.6562C13.2178 26.7871 12.7246 25.8105 12.4219 24.7266C12.1289 23.6426 12.0703 22.5293 12.2461 21.3867C12.4512 20.0684 12.8467 18.8525 13.4326 17.7393C14.0186 16.6162 14.6826 15.6152 15.4248 14.7363C16.1768 13.8477 16.9043 13.0957 17.6074 12.4805C18.3105 11.8555 18.8916 11.3818 19.3506 11.0596C19.8193 10.7275 20.0537 10.5615 20.0537 10.5615C20.0537 10.5615 20.2441 10.6934 20.625 10.957C21.0059 11.2207 21.4941 11.6113 22.0898 12.1289C22.6953 12.6367 23.335 13.2568 24.0088 13.9893C24.6924 14.7119 25.332 15.542 25.9277 16.4795C26.5332 17.4072 27.0264 18.4229 27.4072 19.5264C27.7979 20.6299 27.9932 21.8115 27.9932 23.0713C27.9932 24.1357 27.7783 25.1318 27.3486 26.0596C26.9189 26.9873 26.3232 27.7979 25.5615 28.4912C24.8096 29.1943 23.9355 29.7314 22.9395 30.1025C21.9434 30.4834 20.8838 30.6543 19.7607 30.6152ZM18.8672 0.380859C18.4277 0.634766 18.0762 0.986328 17.8125 1.43555C17.3926 2.16797 16.9287 2.96875 16.4209 3.83789C15.9229 4.70703 15.4443 5.53711 14.9854 6.32812C14.585 6.00586 14.1357 5.85449 13.6377 5.87402C13.2861 5.87402 12.959 5.95215 12.6562 6.1084C12.3535 6.26465 12.0996 6.47949 11.8945 6.75293C9.23828 10.0439 7.60254 13.7842 6.9873 17.9736C6.7334 19.9658 6.87988 21.9238 7.42676 23.8477C7.97363 25.7812 8.88672 27.5244 10.166 29.0771C11.2891 30.4639 12.6416 31.5625 14.2236 32.373C15.8057 33.1934 17.4854 33.6572 19.2627 33.7646C19.5166 33.7744 19.7803 33.7793 20.0537 33.7793C21.8213 33.7695 23.5156 33.4229 25.1367 32.7393C26.7578 32.0557 28.1885 31.084 29.4287 29.8242C30.6689 28.5742 31.6211 27.1338 32.2852 25.5029C32.9492 23.8721 33.2764 22.1777 33.2666 20.4199C33.2666 18.3105 32.9688 16.3379 32.373 14.502C31.7773 12.666 31.0107 10.9863 30.0732 9.46289C29.1357 7.92969 28.1445 6.57227 27.0996 5.39062C26.0645 4.19922 25.0879 3.19824 24.1699 2.3877C23.252 1.57715 22.5293 0.97168 22.002 0.571289C21.4941 0.19043 20.9229 0 20.2881 0C19.7803 0 19.3066 0.126953 18.8672 0.380859ZM20.7275 2.25586C21.2061 2.61719 21.8652 3.17383 22.7051 3.92578C23.5547 4.66797 24.4629 5.58594 25.4297 6.67969C26.3965 7.76367 27.3145 9.00879 28.1836 10.415C29.0527 11.8115 29.7656 13.3496 30.3223 15.0293C30.8789 16.709 31.1572 18.5059 31.1572 20.4199C31.167 21.9043 30.8936 23.3301 30.3369 24.6973C29.7803 26.0742 28.9795 27.29 27.9346 28.3447C26.8994 29.3994 25.6982 30.2148 24.3311 30.791C22.9639 31.3672 21.5381 31.6602 20.0537 31.6699C19.8291 31.6699 19.6045 31.665 19.3799 31.6553C17.7295 31.5576 16.2256 31.1182 14.8682 30.3369C13.5205 29.5654 12.3779 28.5547 11.4404 27.3047C10.5029 26.0449 9.82422 24.6387 9.4043 23.0859C8.98438 21.5234 8.87695 19.9072 9.08203 18.2373C9.6582 14.4287 11.1523 11.0254 13.5645 8.02734C13.5742 8.01758 13.584 8.00781 13.5938 7.99805C13.6035 7.98828 13.6182 7.9834 13.6377 7.9834C13.7158 7.9834 13.7939 8.13965 13.8721 8.45215C13.9502 8.75488 14.0283 9.08691 14.1064 9.44824C14.1943 9.8291 14.2773 10.1758 14.3555 10.4883C14.4434 10.8008 14.5264 10.957 14.6045 10.957C14.6143 10.957 14.624 10.9521 14.6338 10.9424C14.6436 10.9424 14.6533 10.9375 14.6631 10.9277C14.7412 10.8398 14.9219 10.5615 15.2051 10.0928C15.4883 9.62402 15.8301 9.05273 16.2305 8.37891C16.6309 7.69531 17.0459 6.97754 17.4756 6.22559C17.915 5.47363 18.3252 4.76562 18.7061 4.10156C19.0967 3.4375 19.4092 2.90039 19.6436 2.49023C19.7119 2.37305 19.8047 2.28027 19.9219 2.21191C20.0391 2.14355 20.1611 2.10938 20.2881 2.10938C20.4541 2.10938 20.6006 2.1582 20.7275 2.25586Z" fill="#FFD505"/>
</g>
</svg>
