<svg width="42" height="36" viewBox="0 0 42 36" fill="none" xmlns="http://www.w3.org/2000/svg">
<g opacity="0.6">
<path d="M22.5293 2.02051C22.7441 1.71777 23.0029 1.61035 23.3057 1.69824C23.6084 1.78613 23.7598 1.96191 23.7598 2.22559C23.7598 2.31348 23.7598 2.65527 23.7598 3.25098C23.7598 3.84668 23.7598 4.58887 23.7598 5.47754C23.7598 6.36621 23.7598 7.30859 23.7598 8.30469C23.7598 9.29102 23.7598 10.2285 23.7598 11.1172C23.7598 12.0059 23.7598 12.748 23.7598 13.3438C23.7598 13.9395 23.7598 14.2812 23.7598 14.3691C23.7598 14.6328 23.8672 14.877 24.082 15.1016C24.3066 15.3164 24.5557 15.4238 24.8291 15.4238C24.9561 15.4238 25.2148 15.4238 25.6055 15.4238C25.9961 15.4238 26.416 15.4238 26.8652 15.4238C27.3145 15.4238 27.7002 15.4238 28.0225 15.4238C28.3545 15.4238 28.5205 15.4238 28.5205 15.4238C28.7549 15.4238 28.916 15.5312 29.0039 15.7461C29.0918 15.9609 29.0674 16.166 28.9307 16.3613L18.7646 29.8965C18.5498 30.1992 18.2715 30.2871 17.9297 30.1602C17.5977 30.043 17.4316 29.7988 17.4316 29.4277V18.0605C17.4316 17.709 17.2559 17.5332 16.9043 17.5332H12.6855C12.4512 17.5332 12.2852 17.4453 12.1875 17.2695C12.0996 17.084 12.124 16.8936 12.2607 16.6982L22.5293 2.02051Z" fill="#00D5FF"/>
</g>
</svg>
